<svg width="3007" height="1604" viewBox="0 0 3007 1604" fill="none" xmlns="http://www.w3.org/2000/svg">
<line x1="1506.5" y1="791" x2="1506.5" y2="1591" stroke="#B4D9F5" stroke-opacity="0.5"/>
<line x1="1606.5" y1="791" x2="1606.5" y2="1591" stroke="#B4D9F5" stroke-opacity="0.5"/>
<line x1="1706.5" y1="791" x2="1706.5" y2="1591" stroke="#B4D9F5" stroke-opacity="0.5"/>
<line x1="1806.5" y1="791" x2="1806.5" y2="1591" stroke="#B4D9F5" stroke-opacity="0.5"/>
<line x1="1906.5" y1="791" x2="1906.5" y2="1591" stroke="#B4D9F5" stroke-opacity="0.5"/>
<line x1="2006.5" y1="791" x2="2006.5" y2="1591" stroke="#B4D9F5" stroke-opacity="0.5"/>
<line x1="2106.5" y1="791" x2="2106.5" y2="1591" stroke="#B4D9F5" stroke-opacity="0.5"/>
<line x1="2206.5" y1="791" x2="2206.5" y2="1591" stroke="#B4D9F5" stroke-opacity="0.5"/>
<line x1="2306.5" y1="791" x2="2306.5" y2="1591" stroke="#B4D9F5" stroke-opacity="0.5"/>
<line x1="2306.5" y1="791" x2="2306.5" y2="1591" stroke="#B4D9F5" stroke-opacity="0.5"/>
<line x1="2406.5" y1="791" x2="2406.5" y2="1591" stroke="#B4D9F5" stroke-opacity="0.5"/>
<line x1="2506.5" y1="791" x2="2506.5" y2="1591" stroke="#B4D9F5" stroke-opacity="0.5"/>
<line x1="2606.5" y1="791" x2="2606.5" y2="1591" stroke="#B4D9F5" stroke-opacity="0.5"/>
<line x1="2706.5" y1="791" x2="2706.5" y2="1591" stroke="#B4D9F5" stroke-opacity="0.5"/>
<line x1="2806.5" y1="791" x2="2806.5" y2="1591" stroke="#B4D9F5" stroke-opacity="0.5"/>
<line x1="2906.5" y1="791" x2="2906.5" y2="1591" stroke="#B4D9F5" stroke-opacity="0.5"/>
<line x1="3006.5" y1="791" x2="3006.5" y2="1591" stroke="#B4D9F5" stroke-opacity="0.5"/>
<line x1="1486" y1="870.5" x2="2926" y2="870.5" stroke="#B4D9F5" stroke-opacity="0.5"/>
<line x1="1486" y1="970.5" x2="2926" y2="970.5" stroke="#B4D9F5" stroke-opacity="0.5"/>
<line x1="1486" y1="1070.5" x2="2926" y2="1070.5" stroke="#B4D9F5" stroke-opacity="0.5"/>
<line x1="1486" y1="1170.5" x2="2926" y2="1170.5" stroke="#B4D9F5" stroke-opacity="0.5"/>
<line x1="1486" y1="1270.5" x2="2926" y2="1270.5" stroke="#B4D9F5" stroke-opacity="0.5"/>
<line x1="1486" y1="1370.5" x2="2926" y2="1370.5" stroke="#B4D9F5" stroke-opacity="0.5"/>
<line x1="1486" y1="1481.5" x2="2926" y2="1481.5" stroke="#B4D9F5" stroke-opacity="0.5"/>
<line x1="1486" y1="1571.5" x2="2926" y2="1571.5" stroke="#B4D9F5" stroke-opacity="0.5"/>
<line x1="1506.5" y1="2.18557e-08" x2="1506.5" y2="800" stroke="#B4D9F5" stroke-opacity="0.5"/>
<line x1="1606.5" y1="2.18557e-08" x2="1606.5" y2="800" stroke="#B4D9F5" stroke-opacity="0.5"/>
<line x1="1706.5" y1="2.18557e-08" x2="1706.5" y2="800" stroke="#B4D9F5" stroke-opacity="0.5"/>
<line x1="1806.5" y1="2.18557e-08" x2="1806.5" y2="800" stroke="#B4D9F5" stroke-opacity="0.5"/>
<line x1="1906.5" y1="2.18557e-08" x2="1906.5" y2="800" stroke="#B4D9F5" stroke-opacity="0.5"/>
<line x1="2006.5" y1="2.18557e-08" x2="2006.5" y2="800" stroke="#B4D9F5" stroke-opacity="0.5"/>
<line x1="2106.5" y1="2.18557e-08" x2="2106.5" y2="800" stroke="#B4D9F5" stroke-opacity="0.5"/>
<line x1="2206.5" y1="2.18557e-08" x2="2206.5" y2="800" stroke="#B4D9F5" stroke-opacity="0.5"/>
<line x1="2306.5" y1="2.18557e-08" x2="2306.5" y2="800" stroke="#B4D9F5" stroke-opacity="0.5"/>
<line x1="2306.5" y1="2.18557e-08" x2="2306.5" y2="800" stroke="#B4D9F5" stroke-opacity="0.5"/>
<line x1="2406.5" y1="2.18557e-08" x2="2406.5" y2="800" stroke="#B4D9F5" stroke-opacity="0.5"/>
<line x1="2506.5" y1="2.18557e-08" x2="2506.5" y2="800" stroke="#B4D9F5" stroke-opacity="0.5"/>
<line x1="2606.5" y1="2.18557e-08" x2="2606.5" y2="800" stroke="#B4D9F5" stroke-opacity="0.5"/>
<line x1="2706.5" y1="2.18557e-08" x2="2706.5" y2="800" stroke="#B4D9F5" stroke-opacity="0.5"/>
<line x1="2806.5" y1="2.18557e-08" x2="2806.5" y2="800" stroke="#B4D9F5" stroke-opacity="0.5"/>
<line x1="2906.5" y1="2.18557e-08" x2="2906.5" y2="800" stroke="#B4D9F5" stroke-opacity="0.5"/>
<line x1="3006.5" y1="2.18557e-08" x2="3006.5" y2="800" stroke="#B4D9F5" stroke-opacity="0.5"/>
<line x1="1486" y1="79.5" x2="2926" y2="79.5" stroke="#B4D9F5" stroke-opacity="0.5"/>
<line x1="1486" y1="179.5" x2="2926" y2="179.5" stroke="#B4D9F5" stroke-opacity="0.5"/>
<line x1="1486" y1="279.5" x2="2926" y2="279.5" stroke="#B4D9F5" stroke-opacity="0.5"/>
<line x1="1486" y1="379.5" x2="2926" y2="379.5" stroke="#B4D9F5" stroke-opacity="0.5"/>
<line x1="1486" y1="479.5" x2="2926" y2="479.5" stroke="#B4D9F5" stroke-opacity="0.5"/>
<line x1="1486" y1="579.5" x2="2926" y2="579.5" stroke="#B4D9F5" stroke-opacity="0.5"/>
<line x1="1486" y1="690.5" x2="2926" y2="690.5" stroke="#B4D9F5" stroke-opacity="0.5"/>
<line x1="1486" y1="780.5" x2="2926" y2="780.5" stroke="#B4D9F5" stroke-opacity="0.5"/>
<line x1="0.5" y1="2.18557e-08" x2="0.499965" y2="800" stroke="#B4D9F5" stroke-opacity="0.5"/>
<line x1="100.5" y1="2.18557e-08" x2="100.5" y2="800" stroke="#B4D9F5" stroke-opacity="0.5"/>
<line x1="100.5" y1="784" x2="100.5" y2="1584" stroke="#B4D9F5" stroke-opacity="0.5"/>
<line x1="200.5" y1="2.18557e-08" x2="200.5" y2="800" stroke="#B4D9F5" stroke-opacity="0.5"/>
<line x1="300.5" y1="2.18557e-08" x2="300.5" y2="800" stroke="#B4D9F5" stroke-opacity="0.5"/>
<line x1="400.5" y1="2.18557e-08" x2="400.5" y2="800" stroke="#B4D9F5" stroke-opacity="0.5"/>
<line x1="500.5" y1="2.18557e-08" x2="500.5" y2="800" stroke="#B4D9F5" stroke-opacity="0.5"/>
<line x1="600.5" y1="2.18557e-08" x2="600.5" y2="800" stroke="#B4D9F5" stroke-opacity="0.5"/>
<line x1="700.5" y1="2.18557e-08" x2="700.5" y2="800" stroke="#B4D9F5" stroke-opacity="0.5"/>
<line x1="800.5" y1="2.18557e-08" x2="800.5" y2="800" stroke="#B4D9F5" stroke-opacity="0.5"/>
<line x1="900.5" y1="2.18557e-08" x2="900.5" y2="800" stroke="#B4D9F5" stroke-opacity="0.5"/>
<line x1="900.5" y1="2.18557e-08" x2="900.5" y2="800" stroke="#B4D9F5" stroke-opacity="0.5"/>
<line x1="1000.5" y1="2.18557e-08" x2="1000.5" y2="800" stroke="#B4D9F5" stroke-opacity="0.5"/>
<line x1="1100.5" y1="2.18557e-08" x2="1100.5" y2="800" stroke="#B4D9F5" stroke-opacity="0.5"/>
<line x1="1200.5" y1="2.18557e-08" x2="1200.5" y2="800" stroke="#B4D9F5" stroke-opacity="0.5"/>
<line x1="1300.5" y1="2.18557e-08" x2="1300.5" y2="800" stroke="#B4D9F5" stroke-opacity="0.5"/>
<line x1="1400.5" y1="2.18557e-08" x2="1400.5" y2="800" stroke="#B4D9F5" stroke-opacity="0.5"/>
<line x1="80" y1="79.5" x2="1520" y2="79.5" stroke="#B4D9F5" stroke-opacity="0.5"/>
<line x1="80" y1="179.5" x2="1520" y2="179.5" stroke="#B4D9F5" stroke-opacity="0.5"/>
<line x1="80" y1="279.5" x2="1520" y2="279.5" stroke="#B4D9F5" stroke-opacity="0.5"/>
<line x1="80" y1="379.5" x2="1520" y2="379.5" stroke="#B4D9F5" stroke-opacity="0.5"/>
<line x1="80" y1="479.5" x2="1520" y2="479.5" stroke="#B4D9F5" stroke-opacity="0.5"/>
<line x1="80" y1="579.5" x2="1520" y2="579.5" stroke="#B4D9F5" stroke-opacity="0.5"/>
<line x1="80" y1="690.5" x2="1520" y2="690.5" stroke="#B4D9F5" stroke-opacity="0.5"/>
<line x1="80" y1="780.5" x2="1520" y2="780.5" stroke="#B4D9F5" stroke-opacity="0.5"/>
<line x1="0.5" y1="791" x2="0.499965" y2="1591" stroke="#B4D9F5" stroke-opacity="0.5"/>
<line x1="200.5" y1="801" x2="200.5" y2="1601" stroke="#B4D9F5" stroke-opacity="0.5"/>
<line x1="300.5" y1="801" x2="300.5" y2="1601" stroke="#B4D9F5" stroke-opacity="0.5"/>
<line x1="400.5" y1="801" x2="400.5" y2="1601" stroke="#B4D9F5" stroke-opacity="0.5"/>
<line x1="500.5" y1="801" x2="500.5" y2="1601" stroke="#B4D9F5" stroke-opacity="0.5"/>
<line x1="600.5" y1="801" x2="600.5" y2="1601" stroke="#B4D9F5" stroke-opacity="0.5"/>
<line x1="700.5" y1="801" x2="700.5" y2="1601" stroke="#B4D9F5" stroke-opacity="0.5"/>
<line x1="800.5" y1="801" x2="800.5" y2="1601" stroke="#B4D9F5" stroke-opacity="0.5"/>
<line x1="900.5" y1="801" x2="900.5" y2="1601" stroke="#B4D9F5" stroke-opacity="0.5"/>
<line x1="1000.5" y1="801" x2="1000.5" y2="1601" stroke="#B4D9F5" stroke-opacity="0.5"/>
<line x1="1000.5" y1="801" x2="1000.5" y2="1601" stroke="#B4D9F5" stroke-opacity="0.5"/>
<line x1="1100.5" y1="801" x2="1100.5" y2="1601" stroke="#B4D9F5" stroke-opacity="0.5"/>
<line x1="1200.5" y1="801" x2="1200.5" y2="1601" stroke="#B4D9F5" stroke-opacity="0.5"/>
<line x1="1302.5" y1="801" x2="1302.5" y2="1601" stroke="#B4D9F5" stroke-opacity="0.5"/>
<line x1="1402.5" y1="801" x2="1402.5" y2="1601" stroke="#B4D9F5" stroke-opacity="0.5"/>
<line x1="80" y1="870.5" x2="1520" y2="870.5" stroke="#B4D9F5" stroke-opacity="0.5"/>
<line x1="80" y1="970.5" x2="1520" y2="970.5" stroke="#B4D9F5" stroke-opacity="0.5"/>
<line x1="80" y1="1070.5" x2="1520" y2="1070.5" stroke="#B4D9F5" stroke-opacity="0.5"/>
<line x1="80" y1="1170.5" x2="1520" y2="1170.5" stroke="#B4D9F5" stroke-opacity="0.5"/>
<line x1="80" y1="1270.5" x2="1520" y2="1270.5" stroke="#B4D9F5" stroke-opacity="0.5"/>
<line x1="80" y1="1370.5" x2="1520" y2="1370.5" stroke="#B4D9F5" stroke-opacity="0.5"/>
<line x1="80" y1="1481.5" x2="1520" y2="1481.5" stroke="#B4D9F5" stroke-opacity="0.5"/>
<line x1="80" y1="1571.5" x2="1520" y2="1571.5" stroke="#B4D9F5" stroke-opacity="0.5"/>
</svg>
