<svg width="608" height="90" viewBox="0 0 608 90" fill="none" xmlns="http://www.w3.org/2000/svg">
<path fill-rule="evenodd" clip-rule="evenodd" d="M0 77H21.597L51.1355 25.4752L63.7432 46.9423L75 28.2828L65.8055 13L36.4802 13L0 77Z" fill="#0D85DE"/>
<path fill-rule="evenodd" clip-rule="evenodd" d="M116 13H94.403L64.8645 64.5248L52.2568 43.0577L41 61.7172L50.1945 77H79.5198L116 13Z" fill="#0B2A41"/>
<mask id="path-3-outside-1_1718_6449" maskUnits="userSpaceOnUse" x="119" y="21" width="75" height="52" fill="black">
<rect fill="white" x="119" y="21" width="75" height="52"/>
<path d="M129.88 38.7995H129.116V71H120.233V22.5605H132.725L143.759 54.761H144.522V22.5605H153.405V71H140.914L129.88 38.7995ZM161.081 71V22.5605H192.033V31.0964H171.491V42.2H191.339V50.7359H171.491V62.4641H192.033V71H161.081Z"/>
</mask>
<path d="M129.88 38.7995H129.116V71H120.233V22.5605H132.725L143.759 54.761H144.522V22.5605H153.405V71H140.914L129.88 38.7995ZM161.081 71V22.5605H192.033V31.0964H171.491V42.2H191.339V50.7359H171.491V62.4641H192.033V71H161.081Z" fill="#0D85DE"/>
<path d="M129.88 38.7995L130.905 38.448L130.654 37.7152H129.88V38.7995ZM129.116 38.7995V37.7152H128.032V38.7995H129.116ZM129.116 71V72.0843H130.2V71H129.116ZM120.233 71H119.149V72.0843H120.233V71ZM120.233 22.5605V21.4761H119.149V22.5605H120.233ZM132.725 22.5605L133.751 22.209L133.499 21.4761H132.725V22.5605ZM143.759 54.761L142.733 55.1125L142.984 55.8453H143.759V54.761ZM144.522 54.761V55.8453H145.607V54.761H144.522ZM144.522 22.5605V21.4761H143.438V22.5605H144.522ZM153.405 22.5605H154.49V21.4761H153.405V22.5605ZM153.405 71V72.0843H154.49V71H153.405ZM140.914 71L139.888 71.3515L140.139 72.0843H140.914V71ZM129.88 37.7152H129.116V39.8839H129.88V37.7152ZM128.032 38.7995V71H130.2V38.7995H128.032ZM129.116 69.9157H120.233V72.0843H129.116V69.9157ZM121.318 71V22.5605H119.149V71H121.318ZM120.233 23.6448H132.725V21.4761H120.233V23.6448ZM131.699 22.912L142.733 55.1125L144.785 54.4095L133.751 22.209L131.699 22.912ZM143.759 55.8453H144.522V53.6766H143.759V55.8453ZM145.607 54.761V22.5605H143.438V54.761H145.607ZM144.522 23.6448H153.405V21.4761H144.522V23.6448ZM152.321 22.5605V71H154.49V22.5605H152.321ZM153.405 69.9157H140.914V72.0843H153.405V69.9157ZM141.94 70.6485L130.905 38.448L128.854 39.151L139.888 71.3515L141.94 70.6485ZM161.081 71H159.997V72.0843H161.081V71ZM161.081 22.5605V21.4761H159.997V22.5605H161.081ZM192.033 22.5605H193.117V21.4761H192.033V22.5605ZM192.033 31.0964V32.1807H193.117V31.0964H192.033ZM171.491 31.0964V30.012H170.407V31.0964H171.491ZM171.491 42.2H170.407V43.2843H171.491V42.2ZM191.339 42.2H192.423V41.1157H191.339V42.2ZM191.339 50.7359V51.8202H192.423V50.7359H191.339ZM171.491 50.7359V49.6516H170.407V50.7359H171.491ZM171.491 62.4641H170.407V63.5484H171.491V62.4641ZM192.033 62.4641H193.117V61.3798H192.033V62.4641ZM192.033 71V72.0843H193.117V71H192.033ZM162.166 71V22.5605H159.997V71H162.166ZM161.081 23.6448H192.033V21.4761H161.081V23.6448ZM190.948 22.5605V31.0964H193.117V22.5605H190.948ZM192.033 30.012H171.491V32.1807H192.033V30.012ZM170.407 31.0964V42.2H172.575V31.0964H170.407ZM171.491 43.2843H191.339V41.1157H171.491V43.2843ZM190.254 42.2V50.7359H192.423V42.2H190.254ZM191.339 49.6516H171.491V51.8202H191.339V49.6516ZM170.407 50.7359V62.4641H172.575V50.7359H170.407ZM171.491 63.5484H192.033V61.3798H171.491V63.5484ZM190.948 62.4641V71H193.117V62.4641H190.948ZM192.033 69.9157H161.081V72.0843H192.033V69.9157Z" fill="#0D85DE" mask="url(#path-3-outside-1_1718_6449)"/>
<mask id="path-5-outside-2_1718_6449" maskUnits="userSpaceOnUse" x="203.422" y="20" width="402" height="53" fill="black">
<rect fill="white" x="203.422" y="20" width="402" height="53"/>
<path d="M223.478 71.8328C219.406 71.8328 215.867 71.1619 212.86 69.8202C209.852 68.4786 207.424 66.6511 205.573 64.3378L211.611 57.6757C213.369 59.6188 215.289 61.053 217.371 61.9783C219.499 62.9036 221.65 63.3663 223.825 63.3663C226.323 63.3663 228.22 62.8111 229.515 61.7007C230.811 60.5904 231.458 58.9942 231.458 56.9123C231.458 55.2005 230.949 53.9051 229.932 53.026C228.96 52.147 227.294 51.5224 224.935 51.1523L219.869 50.3195C215.52 49.5793 212.374 47.9831 210.431 45.5311C208.488 43.0328 207.516 40.0024 207.516 36.44C207.516 31.7672 209.043 28.1586 212.096 25.614C215.15 23.0231 219.429 21.7277 224.935 21.7277C228.682 21.7277 231.944 22.306 234.72 23.4626C237.496 24.6193 239.74 26.1923 241.452 28.1817L235.553 34.7745C234.257 33.3402 232.731 32.2299 230.972 31.4434C229.214 30.6106 227.225 30.1942 225.004 30.1942C220.332 30.1942 217.995 32.1142 217.995 35.9542C217.995 37.6198 218.504 38.8689 219.522 39.7017C220.586 40.5345 222.298 41.159 224.657 41.5754L229.723 42.4776C233.656 43.1716 236.686 44.652 238.814 46.919C240.943 49.186 242.007 52.2395 242.007 56.0795C242.007 58.3465 241.613 60.4516 240.827 62.3947C240.04 64.2916 238.861 65.9571 237.288 67.3913C235.715 68.7793 233.772 69.8665 231.458 70.653C229.191 71.4395 226.531 71.8328 223.478 71.8328ZM269.669 31.0964V71H259.26V31.0964H245.311V22.5605H283.618V31.0964H269.669ZM299.414 71H289.143V22.5605H307.88C310.24 22.5605 312.345 22.9306 314.195 23.6708C316.046 24.3648 317.596 25.3826 318.845 26.7243C320.14 28.066 321.112 29.6853 321.76 31.5822C322.407 33.479 322.731 35.6072 322.731 37.9667C322.731 41.3904 321.991 44.3282 320.511 46.7802C319.03 49.2323 316.925 50.8516 314.195 51.6381L323.703 71H312.322L304.202 53.026H299.414V71ZM305.382 44.9759C307.834 44.9759 309.523 44.5133 310.448 43.588C311.419 42.6626 311.905 41.1359 311.905 39.0077V36.9258C311.905 34.7976 311.419 33.2708 310.448 32.3455C309.523 31.4202 307.834 30.9576 305.382 30.9576H299.414V44.9759H305.382ZM338.319 22.5605V53.2342C338.319 54.761 338.365 56.172 338.457 57.4675C338.596 58.7166 338.874 59.7807 339.29 60.6598C339.753 61.5388 340.424 62.2328 341.303 62.7417C342.182 63.2043 343.385 63.4357 344.911 63.4357C346.438 63.4357 347.641 63.2043 348.52 62.7417C349.399 62.2328 350.047 61.5388 350.463 60.6598C350.926 59.7807 351.203 58.7166 351.296 57.4675C351.435 56.172 351.504 54.761 351.504 53.2342V22.5605H361.914V51.8463C361.914 55.1773 361.682 58.092 361.22 60.5904C360.803 63.0887 359.971 65.1706 358.722 66.8361C357.472 68.5017 355.737 69.7508 353.517 70.5836C351.296 71.4164 348.428 71.8328 344.911 71.8328C341.395 71.8328 338.527 71.4164 336.306 70.5836C334.085 69.7508 332.35 68.5017 331.101 66.8361C329.852 65.1706 328.996 63.0887 328.534 60.5904C328.117 58.092 327.909 55.1773 327.909 51.8463V22.5605H338.319ZM386.245 71.8328C379.768 71.8328 374.957 69.6583 371.811 65.3094C368.711 60.9142 367.161 54.7378 367.161 46.7802C367.161 38.8226 368.711 32.6694 371.811 28.3205C374.957 23.9253 379.768 21.7277 386.245 21.7277C388.744 21.7277 390.941 22.0747 392.838 22.7687C394.781 23.4164 396.447 24.3417 397.835 25.5446C399.223 26.7475 400.356 28.2048 401.235 29.9166C402.16 31.6284 402.878 33.5484 403.386 35.6766L393.671 38.0361C393.393 36.8795 393.069 35.8154 392.699 34.8439C392.329 33.8723 391.843 33.0395 391.242 32.3455C390.687 31.6516 389.97 31.1195 389.091 30.7494C388.258 30.333 387.24 30.1248 386.037 30.1248C383.215 30.1248 381.202 31.2352 379.999 33.4559C378.843 35.6304 378.265 38.6607 378.265 42.547V51.0135C378.265 54.8998 378.843 57.9533 379.999 60.174C381.202 62.3484 383.215 63.4357 386.037 63.4357C388.443 63.4357 390.178 62.6954 391.242 61.2149C392.352 59.7345 393.162 57.8376 393.671 55.5243L403.386 57.8839C402.878 60.012 402.16 61.932 401.235 63.6439C400.356 65.3557 399.223 66.8361 397.835 68.0853C396.447 69.2882 394.781 70.2135 392.838 70.8612C390.941 71.5089 388.744 71.8328 386.245 71.8328ZM430.563 31.0964V71H420.154V31.0964H406.205V22.5605H444.512V31.0964H430.563ZM458.989 22.5605V53.2342C458.989 54.761 459.035 56.172 459.128 57.4675C459.267 58.7166 459.544 59.7807 459.961 60.6598C460.423 61.5388 461.094 62.2328 461.973 62.7417C462.852 63.2043 464.055 63.4357 465.582 63.4357C467.109 63.4357 468.312 63.2043 469.191 62.7417C470.07 62.2328 470.717 61.5388 471.134 60.6598C471.596 59.7807 471.874 58.7166 471.966 57.4675C472.105 56.172 472.175 54.761 472.175 53.2342V22.5605H482.584V51.8463C482.584 55.1773 482.353 58.092 481.89 60.5904C481.474 63.0887 480.641 65.1706 479.392 66.8361C478.143 68.5017 476.408 69.7508 474.187 70.5836C471.966 71.4164 469.098 71.8328 465.582 71.8328C462.066 71.8328 459.197 71.4164 456.977 70.5836C454.756 69.7508 453.021 68.5017 451.772 66.8361C450.523 65.1706 449.667 63.0887 449.204 60.5904C448.788 58.092 448.579 55.1773 448.579 51.8463V22.5605H458.989ZM500.531 71H490.26V22.5605H508.998C511.357 22.5605 513.462 22.9306 515.313 23.6708C517.163 24.3648 518.713 25.3826 519.962 26.7243C521.258 28.066 522.229 29.6853 522.877 31.5822C523.525 33.479 523.849 35.6072 523.849 37.9667C523.849 41.3904 523.108 44.3282 521.628 46.7802C520.148 49.2323 518.042 50.8516 515.313 51.6381L524.82 71H513.439L505.32 53.026H500.531V71ZM506.499 44.9759C508.951 44.9759 510.64 44.5133 511.565 43.588C512.537 42.6626 513.023 41.1359 513.023 39.0077V36.9258C513.023 34.7976 512.537 33.2708 511.565 32.3455C510.64 31.4202 508.951 30.9576 506.499 30.9576H500.531V44.9759H506.499ZM530.761 71V22.5605H561.713V31.0964H541.171V42.2H561.019V50.7359H541.171V62.4641H561.713V71H530.761ZM585.489 71.8328C581.418 71.8328 577.878 71.1619 574.871 69.8202C571.864 68.4786 569.435 66.6511 567.584 64.3378L573.622 57.6757C575.38 59.6188 577.3 61.053 579.382 61.9783C581.51 62.9036 583.662 63.3663 585.836 63.3663C588.334 63.3663 590.231 62.8111 591.527 61.7007C592.822 60.5904 593.47 58.9942 593.47 56.9123C593.47 55.2005 592.961 53.9051 591.943 53.026C590.971 52.147 589.306 51.5224 586.946 51.1523L581.88 50.3195C577.531 49.5793 574.385 47.9831 572.442 45.5311C570.499 43.0328 569.528 40.0024 569.528 36.44C569.528 31.7672 571.054 28.1586 574.108 25.614C577.161 23.0231 581.441 21.7277 586.946 21.7277C590.694 21.7277 593.955 22.306 596.731 23.4626C599.507 24.6193 601.751 26.1923 603.463 28.1817L597.564 34.7745C596.269 33.3402 594.742 32.2299 592.984 31.4434C591.226 30.6106 589.236 30.1942 587.016 30.1942C582.343 30.1942 580.007 32.1142 580.007 35.9542C580.007 37.6198 580.515 38.8689 581.533 39.7017C582.597 40.5345 584.309 41.159 586.669 41.5754L591.735 42.4776C595.667 43.1716 598.698 44.652 600.826 46.919C602.954 49.186 604.018 52.2395 604.018 56.0795C604.018 58.3465 603.625 60.4516 602.838 62.3947C602.052 64.2916 600.872 65.9571 599.299 67.3913C597.726 68.7793 595.783 69.8665 593.47 70.653C591.203 71.4395 588.542 71.8328 585.489 71.8328Z"/>
</mask>
<path d="M223.478 71.8328C219.406 71.8328 215.867 71.1619 212.86 69.8202C209.852 68.4786 207.424 66.6511 205.573 64.3378L211.611 57.6757C213.369 59.6188 215.289 61.053 217.371 61.9783C219.499 62.9036 221.65 63.3663 223.825 63.3663C226.323 63.3663 228.22 62.8111 229.515 61.7007C230.811 60.5904 231.458 58.9942 231.458 56.9123C231.458 55.2005 230.949 53.9051 229.932 53.026C228.96 52.147 227.294 51.5224 224.935 51.1523L219.869 50.3195C215.52 49.5793 212.374 47.9831 210.431 45.5311C208.488 43.0328 207.516 40.0024 207.516 36.44C207.516 31.7672 209.043 28.1586 212.096 25.614C215.15 23.0231 219.429 21.7277 224.935 21.7277C228.682 21.7277 231.944 22.306 234.72 23.4626C237.496 24.6193 239.74 26.1923 241.452 28.1817L235.553 34.7745C234.257 33.3402 232.731 32.2299 230.972 31.4434C229.214 30.6106 227.225 30.1942 225.004 30.1942C220.332 30.1942 217.995 32.1142 217.995 35.9542C217.995 37.6198 218.504 38.8689 219.522 39.7017C220.586 40.5345 222.298 41.159 224.657 41.5754L229.723 42.4776C233.656 43.1716 236.686 44.652 238.814 46.919C240.943 49.186 242.007 52.2395 242.007 56.0795C242.007 58.3465 241.613 60.4516 240.827 62.3947C240.04 64.2916 238.861 65.9571 237.288 67.3913C235.715 68.7793 233.772 69.8665 231.458 70.653C229.191 71.4395 226.531 71.8328 223.478 71.8328ZM269.669 31.0964V71H259.26V31.0964H245.311V22.5605H283.618V31.0964H269.669ZM299.414 71H289.143V22.5605H307.88C310.24 22.5605 312.345 22.9306 314.195 23.6708C316.046 24.3648 317.596 25.3826 318.845 26.7243C320.14 28.066 321.112 29.6853 321.76 31.5822C322.407 33.479 322.731 35.6072 322.731 37.9667C322.731 41.3904 321.991 44.3282 320.511 46.7802C319.03 49.2323 316.925 50.8516 314.195 51.6381L323.703 71H312.322L304.202 53.026H299.414V71ZM305.382 44.9759C307.834 44.9759 309.523 44.5133 310.448 43.588C311.419 42.6626 311.905 41.1359 311.905 39.0077V36.9258C311.905 34.7976 311.419 33.2708 310.448 32.3455C309.523 31.4202 307.834 30.9576 305.382 30.9576H299.414V44.9759H305.382ZM338.319 22.5605V53.2342C338.319 54.761 338.365 56.172 338.457 57.4675C338.596 58.7166 338.874 59.7807 339.29 60.6598C339.753 61.5388 340.424 62.2328 341.303 62.7417C342.182 63.2043 343.385 63.4357 344.911 63.4357C346.438 63.4357 347.641 63.2043 348.52 62.7417C349.399 62.2328 350.047 61.5388 350.463 60.6598C350.926 59.7807 351.203 58.7166 351.296 57.4675C351.435 56.172 351.504 54.761 351.504 53.2342V22.5605H361.914V51.8463C361.914 55.1773 361.682 58.092 361.22 60.5904C360.803 63.0887 359.971 65.1706 358.722 66.8361C357.472 68.5017 355.737 69.7508 353.517 70.5836C351.296 71.4164 348.428 71.8328 344.911 71.8328C341.395 71.8328 338.527 71.4164 336.306 70.5836C334.085 69.7508 332.35 68.5017 331.101 66.8361C329.852 65.1706 328.996 63.0887 328.534 60.5904C328.117 58.092 327.909 55.1773 327.909 51.8463V22.5605H338.319ZM386.245 71.8328C379.768 71.8328 374.957 69.6583 371.811 65.3094C368.711 60.9142 367.161 54.7378 367.161 46.7802C367.161 38.8226 368.711 32.6694 371.811 28.3205C374.957 23.9253 379.768 21.7277 386.245 21.7277C388.744 21.7277 390.941 22.0747 392.838 22.7687C394.781 23.4164 396.447 24.3417 397.835 25.5446C399.223 26.7475 400.356 28.2048 401.235 29.9166C402.16 31.6284 402.878 33.5484 403.386 35.6766L393.671 38.0361C393.393 36.8795 393.069 35.8154 392.699 34.8439C392.329 33.8723 391.843 33.0395 391.242 32.3455C390.687 31.6516 389.97 31.1195 389.091 30.7494C388.258 30.333 387.24 30.1248 386.037 30.1248C383.215 30.1248 381.202 31.2352 379.999 33.4559C378.843 35.6304 378.265 38.6607 378.265 42.547V51.0135C378.265 54.8998 378.843 57.9533 379.999 60.174C381.202 62.3484 383.215 63.4357 386.037 63.4357C388.443 63.4357 390.178 62.6954 391.242 61.2149C392.352 59.7345 393.162 57.8376 393.671 55.5243L403.386 57.8839C402.878 60.012 402.16 61.932 401.235 63.6439C400.356 65.3557 399.223 66.8361 397.835 68.0853C396.447 69.2882 394.781 70.2135 392.838 70.8612C390.941 71.5089 388.744 71.8328 386.245 71.8328ZM430.563 31.0964V71H420.154V31.0964H406.205V22.5605H444.512V31.0964H430.563ZM458.989 22.5605V53.2342C458.989 54.761 459.035 56.172 459.128 57.4675C459.267 58.7166 459.544 59.7807 459.961 60.6598C460.423 61.5388 461.094 62.2328 461.973 62.7417C462.852 63.2043 464.055 63.4357 465.582 63.4357C467.109 63.4357 468.312 63.2043 469.191 62.7417C470.07 62.2328 470.717 61.5388 471.134 60.6598C471.596 59.7807 471.874 58.7166 471.966 57.4675C472.105 56.172 472.175 54.761 472.175 53.2342V22.5605H482.584V51.8463C482.584 55.1773 482.353 58.092 481.89 60.5904C481.474 63.0887 480.641 65.1706 479.392 66.8361C478.143 68.5017 476.408 69.7508 474.187 70.5836C471.966 71.4164 469.098 71.8328 465.582 71.8328C462.066 71.8328 459.197 71.4164 456.977 70.5836C454.756 69.7508 453.021 68.5017 451.772 66.8361C450.523 65.1706 449.667 63.0887 449.204 60.5904C448.788 58.092 448.579 55.1773 448.579 51.8463V22.5605H458.989ZM500.531 71H490.26V22.5605H508.998C511.357 22.5605 513.462 22.9306 515.313 23.6708C517.163 24.3648 518.713 25.3826 519.962 26.7243C521.258 28.066 522.229 29.6853 522.877 31.5822C523.525 33.479 523.849 35.6072 523.849 37.9667C523.849 41.3904 523.108 44.3282 521.628 46.7802C520.148 49.2323 518.042 50.8516 515.313 51.6381L524.82 71H513.439L505.32 53.026H500.531V71ZM506.499 44.9759C508.951 44.9759 510.64 44.5133 511.565 43.588C512.537 42.6626 513.023 41.1359 513.023 39.0077V36.9258C513.023 34.7976 512.537 33.2708 511.565 32.3455C510.64 31.4202 508.951 30.9576 506.499 30.9576H500.531V44.9759H506.499ZM530.761 71V22.5605H561.713V31.0964H541.171V42.2H561.019V50.7359H541.171V62.4641H561.713V71H530.761ZM585.489 71.8328C581.418 71.8328 577.878 71.1619 574.871 69.8202C571.864 68.4786 569.435 66.6511 567.584 64.3378L573.622 57.6757C575.38 59.6188 577.3 61.053 579.382 61.9783C581.51 62.9036 583.662 63.3663 585.836 63.3663C588.334 63.3663 590.231 62.8111 591.527 61.7007C592.822 60.5904 593.47 58.9942 593.47 56.9123C593.47 55.2005 592.961 53.9051 591.943 53.026C590.971 52.147 589.306 51.5224 586.946 51.1523L581.88 50.3195C577.531 49.5793 574.385 47.9831 572.442 45.5311C570.499 43.0328 569.528 40.0024 569.528 36.44C569.528 31.7672 571.054 28.1586 574.108 25.614C577.161 23.0231 581.441 21.7277 586.946 21.7277C590.694 21.7277 593.955 22.306 596.731 23.4626C599.507 24.6193 601.751 26.1923 603.463 28.1817L597.564 34.7745C596.269 33.3402 594.742 32.2299 592.984 31.4434C591.226 30.6106 589.236 30.1942 587.016 30.1942C582.343 30.1942 580.007 32.1142 580.007 35.9542C580.007 37.6198 580.515 38.8689 581.533 39.7017C582.597 40.5345 584.309 41.159 586.669 41.5754L591.735 42.4776C595.667 43.1716 598.698 44.652 600.826 46.919C602.954 49.186 604.018 52.2395 604.018 56.0795C604.018 58.3465 603.625 60.4516 602.838 62.3947C602.052 64.2916 600.872 65.9571 599.299 67.3913C597.726 68.7793 595.783 69.8665 593.47 70.653C591.203 71.4395 588.542 71.8328 585.489 71.8328Z" fill="#0B2A41"/>
<path d="M212.86 69.8202L213.302 68.83L212.86 69.8202ZM205.573 64.3378L204.769 63.6097L204.149 64.294L204.726 65.0152L205.573 64.3378ZM211.611 57.6757L212.415 56.9482L211.611 56.0602L210.807 56.9475L211.611 57.6757ZM217.371 61.9783L216.93 62.9692L216.938 62.9727L217.371 61.9783ZM229.515 61.7007L230.221 62.524L230.221 62.524L229.515 61.7007ZM229.932 53.026L229.204 53.8301L229.213 53.8385L229.223 53.8467L229.932 53.026ZM224.935 51.1523L224.759 52.2223L224.767 52.2235L224.935 51.1523ZM219.869 50.3195L219.687 51.3885L219.693 51.3895L219.869 50.3195ZM210.431 45.5311L209.575 46.1968L209.581 46.2045L210.431 45.5311ZM212.096 25.614L212.791 26.447L212.798 26.4408L212.096 25.614ZM234.72 23.4626L235.137 22.4617L235.137 22.4617L234.72 23.4626ZM241.452 28.1817L242.26 28.9047L242.894 28.1956L242.273 27.4744L241.452 28.1817ZM235.553 34.7745L234.748 35.5013L235.557 36.3964L236.361 35.4975L235.553 34.7745ZM230.972 31.4434L230.508 32.4233L230.519 32.4284L230.53 32.4332L230.972 31.4434ZM219.522 39.7017L218.835 40.5409L218.844 40.5484L218.854 40.5556L219.522 39.7017ZM224.657 41.5754L224.847 40.5079L224.846 40.5076L224.657 41.5754ZM229.723 42.4776L229.533 43.5451L229.535 43.5454L229.723 42.4776ZM238.814 46.919L239.605 46.1769L239.605 46.1769L238.814 46.919ZM240.827 62.3947L241.829 62.81L241.832 62.8015L240.827 62.3947ZM237.288 67.3913L238.005 68.2044L238.012 68.1986L238.018 68.1926L237.288 67.3913ZM231.458 70.653L231.109 69.6264L231.103 69.6286L231.458 70.653ZM223.478 70.7484C219.523 70.7484 216.141 70.0968 213.302 68.83L212.418 70.8105C215.593 72.227 219.289 72.9171 223.478 72.9171V70.7484ZM213.302 68.83C210.434 67.5508 208.151 65.8241 206.42 63.6605L204.726 65.0152C206.697 67.4781 209.271 69.4063 212.418 70.8105L213.302 68.83ZM206.376 65.066L212.414 58.4038L210.807 56.9475L204.769 63.6097L206.376 65.066ZM210.806 58.4032C212.651 60.4417 214.691 61.9739 216.93 62.9692L217.811 60.9874C215.887 60.1321 214.086 58.7959 212.415 56.9482L210.806 58.4032ZM216.938 62.9727C219.194 63.9533 221.491 64.4506 223.825 64.4506V62.2819C221.809 62.2819 219.804 61.8539 217.803 60.9839L216.938 62.9727ZM223.825 64.4506C226.464 64.4506 228.655 63.866 230.221 62.524L228.809 60.8774C227.784 61.7562 226.181 62.2819 223.825 62.2819V64.4506ZM230.221 62.524C231.809 61.1628 232.543 59.2346 232.543 56.9123H230.374C230.374 58.7538 229.812 60.0179 228.809 60.8774L230.221 62.524ZM232.543 56.9123C232.543 54.9778 231.959 53.344 230.64 52.2054L229.223 53.8467C229.94 54.4661 230.374 55.4232 230.374 56.9123H232.543ZM230.659 52.2219C229.448 51.1264 227.523 50.4607 225.103 50.0811L224.767 52.2235C227.066 52.5841 228.472 53.1676 229.204 53.8301L230.659 52.2219ZM225.111 50.0823L220.045 49.2495L219.693 51.3895L224.759 52.2223L225.111 50.0823ZM220.051 49.2506C215.858 48.5369 213 47.0277 211.281 44.8576L209.581 46.2045C211.748 48.9386 215.182 50.6217 219.687 51.3885L220.051 49.2506ZM211.287 44.8654C209.51 42.5811 208.6 39.7932 208.6 36.44H206.432C206.432 40.2117 207.465 43.4844 209.575 46.1968L211.287 44.8654ZM208.6 36.44C208.6 32.0263 210.029 28.7485 212.791 26.447L211.402 24.781C208.057 27.5686 206.432 31.5082 206.432 36.44H208.6ZM212.798 26.4408C215.593 24.0693 219.59 22.812 224.935 22.812V20.6434C219.268 20.6434 214.707 21.977 211.395 24.7872L212.798 26.4408ZM224.935 22.812C228.573 22.812 231.687 23.3738 234.303 24.4636L235.137 22.4617C232.201 21.2383 228.791 20.6434 224.935 20.6434V22.812ZM234.303 24.4636C236.946 25.5647 239.043 27.0452 240.63 28.8889L242.273 27.4744C240.436 25.3394 238.046 23.6738 235.137 22.4617L234.303 24.4636ZM240.643 27.4587L234.745 34.0514L236.361 35.4975L242.26 28.9047L240.643 27.4587ZM236.357 34.0476C234.961 32.502 233.311 31.3018 231.415 30.4536L230.53 32.4332C232.15 33.1579 233.553 34.1785 234.748 35.5013L236.357 34.0476ZM231.437 30.4634C229.514 29.5528 227.363 29.1099 225.004 29.1099V31.2786C227.087 31.2786 228.915 31.6684 230.508 32.4233L231.437 30.4634ZM225.004 29.1099C222.547 29.1099 220.502 29.6104 219.059 30.7965C217.575 32.016 216.911 33.8048 216.911 35.9542H219.079C219.079 34.2636 219.583 33.1724 220.436 32.472C221.329 31.738 222.789 31.2786 225.004 31.2786V29.1099ZM216.911 35.9542C216.911 37.8508 217.501 39.4492 218.835 40.5409L220.209 38.8625C219.507 38.2887 219.079 37.3888 219.079 35.9542H216.911ZM218.854 40.5556C220.128 41.5528 222.05 42.2165 224.469 42.6433L224.846 40.5076C222.545 40.1016 221.044 39.5161 220.19 38.8478L218.854 40.5556ZM224.467 42.643L229.533 43.5451L229.913 41.41L224.847 40.5079L224.467 42.643ZM229.535 43.5454C233.303 44.2103 236.096 45.608 238.024 47.6612L239.605 46.1769C237.276 43.6961 234.009 42.1328 229.912 41.4098L229.535 43.5454ZM238.024 47.6612C239.921 49.6825 240.922 52.4472 240.922 56.0795H243.091C243.091 52.0318 241.964 48.6896 239.605 46.1769L238.024 47.6612ZM240.922 56.0795C240.922 58.2185 240.552 60.1842 239.822 61.9879L241.832 62.8015C242.675 60.7189 243.091 58.4745 243.091 56.0795H240.922ZM239.825 61.9794C239.102 63.7238 238.017 65.259 236.557 66.59L238.018 68.1926C239.704 66.6552 240.979 64.8593 241.829 62.81L239.825 61.9794ZM236.57 66.5782C235.121 67.8571 233.309 68.8785 231.109 69.6264L231.807 71.6796C234.234 70.8545 236.308 69.7015 238.005 68.2044L236.57 66.5782ZM231.103 69.6286C228.976 70.3663 226.441 70.7484 223.478 70.7484V72.9171C226.621 72.9171 229.406 72.5127 231.814 71.6774L231.103 69.6286ZM269.669 31.0964V30.012H268.585V31.0964H269.669ZM269.669 71V72.0843H270.754V71H269.669ZM259.26 71H258.175V72.0843H259.26V71ZM259.26 31.0964H260.344V30.012H259.26V31.0964ZM245.311 31.0964H244.226V32.1807H245.311V31.0964ZM245.311 22.5605V21.4761H244.226V22.5605H245.311ZM283.618 22.5605H284.702V21.4761H283.618V22.5605ZM283.618 31.0964V32.1807H284.702V31.0964H283.618ZM268.585 31.0964V71H270.754V31.0964H268.585ZM269.669 69.9157H259.26V72.0843H269.669V69.9157ZM260.344 71V31.0964H258.175V71H260.344ZM259.26 30.012H245.311V32.1807H259.26V30.012ZM246.395 31.0964V22.5605H244.226V31.0964H246.395ZM245.311 23.6448H283.618V21.4761H245.311V23.6448ZM282.534 22.5605V31.0964H284.702V22.5605H282.534ZM283.618 30.012H269.669V32.1807H283.618V30.012ZM299.414 71V72.0843H300.498V71H299.414ZM289.143 71H288.059V72.0843H289.143V71ZM289.143 22.5605V21.4761H288.059V22.5605H289.143ZM314.195 23.6708L313.793 24.6776L313.804 24.682L313.815 24.6861L314.195 23.6708ZM318.845 26.7243L318.051 27.4632L318.058 27.4704L318.065 27.4775L318.845 26.7243ZM320.511 46.7802L319.582 46.2198L319.582 46.2198L320.511 46.7802ZM314.195 51.6381L313.895 50.5961L312.652 50.9544L313.222 52.116L314.195 51.6381ZM323.703 71V72.0843H325.443L324.676 70.5221L323.703 71ZM312.322 71L311.333 71.4464L311.622 72.0843H312.322V71ZM304.202 53.026L305.19 52.5796L304.902 51.9417H304.202V53.026ZM299.414 53.026V51.9417H298.329V53.026H299.414ZM310.448 43.588L309.7 42.8027L309.691 42.8119L309.681 42.8212L310.448 43.588ZM310.448 32.3455L309.681 33.1123L309.691 33.1216L309.7 33.1307L310.448 32.3455ZM299.414 30.9576V29.8733H298.329V30.9576H299.414ZM299.414 44.9759H298.329V46.0602H299.414V44.9759ZM299.414 69.9157H289.143V72.0843H299.414V69.9157ZM290.227 71V22.5605H288.059V71H290.227ZM289.143 23.6448H307.88V21.4761H289.143V23.6448ZM307.88 23.6448C310.127 23.6448 312.091 23.9971 313.793 24.6776L314.598 22.6641C312.598 21.8641 310.353 21.4761 307.88 21.4761V23.6448ZM313.815 24.6861C315.521 25.3259 316.925 26.2538 318.051 27.4632L319.639 25.9854C318.266 24.5115 316.571 23.4038 314.576 22.6555L313.815 24.6861ZM318.065 27.4775C319.242 28.6962 320.133 30.1749 320.734 31.9326L322.786 31.2318C322.091 29.1957 321.039 27.4358 319.625 25.9712L318.065 27.4775ZM320.734 31.9326C321.337 33.6987 321.647 35.7058 321.647 37.9667H323.816C323.816 35.5086 323.478 33.2594 322.786 31.2318L320.734 31.9326ZM321.647 37.9667C321.647 41.2316 320.942 43.9672 319.582 46.2198L321.439 47.3407C323.04 44.6891 323.816 41.5491 323.816 37.9667H321.647ZM319.582 46.2198C318.242 48.4401 316.36 49.886 313.895 50.5961L314.496 52.68C317.49 51.8172 319.818 50.0245 321.439 47.3407L319.582 46.2198ZM313.222 52.116L322.73 71.4779L324.676 70.5221L315.169 51.1601L313.222 52.116ZM323.703 69.9157H312.322V72.0843H323.703V69.9157ZM313.31 70.5536L305.19 52.5796L303.214 53.4724L311.333 71.4464L313.31 70.5536ZM304.202 51.9417H299.414V54.1104H304.202V51.9417ZM298.329 53.026V71H300.498V53.026H298.329ZM305.382 46.0602C307.896 46.0602 309.969 45.6007 311.215 44.3547L309.681 42.8212C309.077 43.4258 307.772 43.8916 305.382 43.8916V46.0602ZM311.196 44.3732C312.48 43.1502 312.99 41.2634 312.99 39.0077H310.821C310.821 41.0084 310.359 42.1751 309.7 42.8027L311.196 44.3732ZM312.99 39.0077V36.9258H310.821V39.0077H312.99ZM312.99 36.9258C312.99 34.6701 312.48 32.7833 311.196 31.5603L309.7 33.1307C310.359 33.7584 310.821 34.9251 310.821 36.9258H312.99ZM311.215 31.5788C309.969 30.3328 307.896 29.8733 305.382 29.8733V32.0419C307.772 32.0419 309.077 32.5077 309.681 33.1123L311.215 31.5788ZM305.382 29.8733H299.414V32.0419H305.382V29.8733ZM298.329 30.9576V44.9759H300.498V30.9576H298.329ZM299.414 46.0602H305.382V43.8916H299.414V46.0602ZM338.319 22.5605H339.403V21.4761H338.319V22.5605ZM338.457 57.4675L337.376 57.5447L337.377 57.566L337.38 57.5872L338.457 57.4675ZM339.29 60.6598L338.31 61.1239L338.32 61.1446L338.331 61.1648L339.29 60.6598ZM341.303 62.7417L340.759 63.6801L340.778 63.6911L340.798 63.7012L341.303 62.7417ZM348.52 62.7417L349.025 63.7012L349.044 63.6911L349.063 63.6801L348.52 62.7417ZM350.463 60.6598L349.504 60.1547L349.493 60.1749L349.483 60.1956L350.463 60.6598ZM351.296 57.4675L350.218 57.352L350.216 57.3696L350.215 57.3874L351.296 57.4675ZM351.504 22.5605V21.4761H350.42V22.5605H351.504ZM361.914 22.5605H362.998V21.4761H361.914V22.5605ZM361.22 60.5904L360.154 60.3929L360.152 60.4025L360.15 60.4121L361.22 60.5904ZM358.722 66.8361L357.854 66.1855L357.854 66.1855L358.722 66.8361ZM336.306 70.5836L336.687 69.5683L336.687 69.5683L336.306 70.5836ZM331.101 66.8361L331.969 66.1855L331.969 66.1855L331.101 66.8361ZM328.534 60.5904L327.464 60.7686L327.466 60.7782L327.467 60.7878L328.534 60.5904ZM327.909 22.5605V21.4761H326.825V22.5605H327.909ZM337.234 22.5605V53.2342H339.403V22.5605H337.234ZM337.234 53.2342C337.234 54.7824 337.281 56.2196 337.376 57.5447L339.539 57.3902C339.449 56.1245 339.403 54.7395 339.403 53.2342H337.234ZM337.38 57.5872C337.528 58.9227 337.83 60.1098 338.31 61.1239L340.27 60.1956C339.918 59.4516 339.664 58.5105 339.535 57.3477L337.38 57.5872ZM338.331 61.1648C338.891 62.2289 339.708 63.0713 340.759 63.6801L341.846 61.8033C341.14 61.3943 340.615 60.8487 340.25 60.1547L338.331 61.1648ZM340.798 63.7012C341.894 64.2782 343.295 64.52 344.911 64.52V62.3513C343.475 62.3513 342.47 62.1304 341.808 61.7821L340.798 63.7012ZM344.911 64.52C346.528 64.52 347.929 64.2782 349.025 63.7012L348.015 61.7821C347.353 62.1304 346.348 62.3513 344.911 62.3513V64.52ZM349.063 63.6801C350.124 63.0662 350.928 62.2108 351.443 61.1239L349.483 60.1956C349.165 60.8668 348.674 61.3993 347.977 61.8033L349.063 63.6801ZM351.423 61.1648C351.97 60.1244 352.277 58.9078 352.377 57.5476L350.215 57.3874C350.13 58.5254 349.881 59.4371 349.504 60.1547L351.423 61.1648ZM352.374 57.583C352.518 56.2434 352.589 54.7932 352.589 53.2342H350.42C350.42 54.7287 350.352 56.1007 350.218 57.352L352.374 57.583ZM352.589 53.2342V22.5605H350.42V53.2342H352.589ZM351.504 23.6448H361.914V21.4761H351.504V23.6448ZM360.829 22.5605V51.8463H362.998V22.5605H360.829ZM360.829 51.8463C360.829 55.1303 360.601 57.9762 360.154 60.3929L362.286 60.7878C362.764 58.2079 362.998 55.2244 362.998 51.8463H360.829ZM360.15 60.4121C359.756 62.7757 358.979 64.686 357.854 66.1855L359.589 67.4867C360.963 65.6553 361.851 63.4016 362.289 60.7686L360.15 60.4121ZM357.854 66.1855C356.746 67.6634 355.191 68.7978 353.136 69.5683L353.897 71.5989C356.284 70.7039 358.199 69.34 359.589 67.4867L357.854 66.1855ZM353.136 69.5683C351.081 70.339 348.354 70.7484 344.911 70.7484V72.9171C348.501 72.9171 351.511 72.4937 353.897 71.5989L353.136 69.5683ZM344.911 70.7484C341.468 70.7484 338.742 70.339 336.687 69.5683L335.925 71.5989C338.312 72.4937 341.322 72.9171 344.911 72.9171V70.7484ZM336.687 69.5683C334.632 68.7978 333.077 67.6634 331.969 66.1855L330.234 67.4867C331.624 69.34 333.539 70.7039 335.925 71.5989L336.687 69.5683ZM331.969 66.1855C330.84 64.68 330.039 62.7625 329.6 60.3929L327.467 60.7878C327.954 63.4148 328.865 65.6612 330.234 67.4867L331.969 66.1855ZM329.603 60.4121C329.199 57.9877 328.993 55.1351 328.993 51.8463H326.825C326.825 55.2196 327.035 58.1964 327.464 60.7686L329.603 60.4121ZM328.993 51.8463V22.5605H326.825V51.8463H328.993ZM327.909 23.6448H338.319V21.4761H327.909V23.6448ZM371.811 65.3094L370.924 65.9344L370.932 65.9449L371.811 65.3094ZM371.811 28.3205L370.929 27.6893L370.928 27.6911L371.811 28.3205ZM392.838 22.7687L392.465 23.787L392.48 23.7924L392.495 23.7974L392.838 22.7687ZM401.235 29.9166L400.271 30.412L400.276 30.4222L400.281 30.4322L401.235 29.9166ZM403.386 35.6766L403.642 36.7303L404.692 36.4753L404.441 35.4244L403.386 35.6766ZM393.671 38.0361L392.616 38.2892L392.87 39.3464L393.927 39.0899L393.671 38.0361ZM392.699 34.8439L391.686 35.2299L391.686 35.2299L392.699 34.8439ZM391.242 32.3455L390.395 33.0229L390.408 33.0396L390.422 33.0557L391.242 32.3455ZM389.091 30.7494L388.606 31.7193L388.637 31.7351L388.67 31.7488L389.091 30.7494ZM379.999 33.4559L379.046 32.9394L379.042 32.9467L379.999 33.4559ZM379.999 60.174L379.038 60.6749L379.044 60.6869L379.051 60.6989L379.999 60.174ZM391.242 61.2149L390.374 60.5643L390.368 60.5731L390.361 60.5821L391.242 61.2149ZM393.671 55.5243L393.927 54.4706L392.85 54.2091L392.612 55.2914L393.671 55.5243ZM403.386 57.8839L404.441 58.136L404.692 57.0851L403.642 56.8301L403.386 57.8839ZM401.235 63.6439L400.281 63.1282L400.276 63.1383L400.271 63.1485L401.235 63.6439ZM397.835 68.0853L398.545 68.9047L398.552 68.8981L398.56 68.8913L397.835 68.0853ZM392.838 70.8612L392.495 69.8325L392.488 69.835L392.838 70.8612ZM386.245 70.7484C380.035 70.7484 375.588 68.681 372.689 64.6738L370.932 65.9449C374.325 70.6357 379.501 72.9171 386.245 72.9171V70.7484ZM372.697 64.6844C369.774 60.5407 368.245 54.6159 368.245 46.7802H366.077C366.077 54.8598 367.647 61.2877 370.924 65.9344L372.697 64.6844ZM368.245 46.7802C368.245 38.9435 369.775 33.045 372.694 28.9499L370.928 27.6911C367.647 32.2938 366.077 38.7018 366.077 46.7802H368.245ZM372.692 28.9516C375.593 24.8994 380.039 22.812 386.245 22.812V20.6434C379.497 20.6434 374.32 22.9512 370.929 27.6893L372.692 28.9516ZM386.245 22.812C388.645 22.812 390.712 23.1457 392.465 23.787L393.211 21.7503C391.17 21.0037 388.842 20.6434 386.245 20.6434V22.812ZM392.495 23.7974C394.319 24.4053 395.856 25.2644 397.124 26.364L398.545 24.7252C397.038 23.4189 395.243 22.4275 393.181 21.74L392.495 23.7974ZM397.124 26.364C398.403 27.4718 399.452 28.8175 400.271 30.412L402.2 29.4213C401.26 27.5922 400.042 26.0231 398.545 24.7252L397.124 26.364ZM400.281 30.4322C401.156 32.0514 401.842 33.8812 402.332 35.9288L404.441 35.4244C403.913 33.2156 403.164 31.2054 402.189 29.401L400.281 30.4322ZM403.131 34.6229L393.415 36.9824L393.927 39.0899L403.642 36.7303L403.131 34.6229ZM394.725 37.7831C394.438 36.5876 394.101 35.4785 393.713 34.4578L391.686 35.2299C392.037 36.1524 392.348 37.1714 392.616 38.2892L394.725 37.7831ZM393.713 34.4578C393.303 33.3832 392.756 32.437 392.061 31.6354L390.422 33.0557C390.931 33.642 391.355 34.3614 391.686 35.2299L393.713 34.4578ZM392.089 31.6682C391.412 30.8228 390.544 30.185 389.511 29.75L388.67 31.7488C389.395 32.054 389.961 32.4804 390.395 33.0229L392.089 31.6682ZM389.575 29.7795C388.555 29.2692 387.361 29.0405 386.037 29.0405V31.2092C387.119 31.2092 387.961 31.3968 388.606 31.7193L389.575 29.7795ZM386.037 29.0405C384.484 29.0405 383.087 29.3465 381.887 30.0082C380.681 30.6734 379.736 31.6653 379.046 32.9395L380.953 33.9724C381.466 33.0257 382.128 32.3521 382.935 31.907C383.748 31.4583 384.768 31.2092 386.037 31.2092V29.0405ZM379.042 32.9467C377.767 35.3431 377.18 38.5756 377.18 42.547H379.349C379.349 38.7458 379.918 35.9176 380.957 33.9651L379.042 32.9467ZM377.18 42.547V51.0135H379.349V42.547H377.18ZM377.18 51.0135C377.18 54.9869 377.768 58.2372 379.038 60.6749L380.961 59.6731C379.918 57.6693 379.349 54.8126 379.349 51.0135H377.18ZM379.051 60.6989C380.474 63.2717 382.885 64.52 386.037 64.52V62.3513C383.545 62.3513 381.931 61.4251 380.948 59.6491L379.051 60.6989ZM386.037 64.52C388.67 64.52 390.792 63.6983 392.122 61.8478L390.361 60.5821C389.563 61.6926 388.216 62.3513 386.037 62.3513V64.52ZM392.109 61.8655C393.335 60.2316 394.197 58.1811 394.73 55.7573L392.612 55.2914C392.127 57.4941 391.37 59.2373 390.374 60.5643L392.109 61.8655ZM393.415 56.578L403.131 58.9376L403.642 56.8301L393.927 54.4706L393.415 56.578ZM402.332 57.6317C401.842 59.6793 401.156 61.5091 400.281 63.1282L402.189 64.1595C403.164 62.355 403.913 60.3448 404.441 58.136L402.332 57.6317ZM400.271 63.1485C399.45 64.7467 398.396 66.121 397.109 67.2793L398.56 68.8913C400.049 67.5513 401.262 65.9646 402.2 64.1392L400.271 63.1485ZM397.124 67.2659C395.856 68.3654 394.319 69.2246 392.495 69.8325L393.181 71.8899C395.243 71.2024 397.038 70.211 398.545 68.9047L397.124 67.2659ZM392.488 69.835C390.727 70.4361 388.653 70.7484 386.245 70.7484V72.9171C388.835 72.9171 391.155 72.5817 393.188 71.8874L392.488 69.835ZM430.563 31.0964V30.012H429.479V31.0964H430.563ZM430.563 71V72.0843H431.648V71H430.563ZM420.154 71H419.069V72.0843H420.154V71ZM420.154 31.0964H421.238V30.012H420.154V31.0964ZM406.205 31.0964H405.12V32.1807H406.205V31.0964ZM406.205 22.5605V21.4761H405.12V22.5605H406.205ZM444.512 22.5605H445.596V21.4761H444.512V22.5605ZM444.512 31.0964V32.1807H445.596V31.0964H444.512ZM429.479 31.0964V71H431.648V31.0964H429.479ZM430.563 69.9157H420.154V72.0843H430.563V69.9157ZM421.238 71V31.0964H419.069V71H421.238ZM420.154 30.012H406.205V32.1807H420.154V30.012ZM407.289 31.0964V22.5605H405.12V31.0964H407.289ZM406.205 23.6448H444.512V21.4761H406.205V23.6448ZM443.428 22.5605V31.0964H445.596V22.5605H443.428ZM444.512 30.012H430.563V32.1807H444.512V30.012ZM458.989 22.5605H460.073V21.4761H458.989V22.5605ZM459.128 57.4675L458.046 57.5447L458.048 57.566L458.05 57.5872L459.128 57.4675ZM459.961 60.6598L458.981 61.1239L458.99 61.1446L459.001 61.1648L459.961 60.6598ZM461.973 62.7417L461.43 63.6801L461.449 63.6911L461.468 63.7012L461.973 62.7417ZM469.191 62.7417L469.696 63.7012L469.715 63.6911L469.734 63.6801L469.191 62.7417ZM471.134 60.6598L470.174 60.1547L470.164 60.1749L470.154 60.1956L471.134 60.6598ZM471.966 57.4675L470.888 57.352L470.886 57.3696L470.885 57.3874L471.966 57.4675ZM472.175 22.5605V21.4761H471.09V22.5605H472.175ZM482.584 22.5605H483.669V21.4761H482.584V22.5605ZM481.89 60.5904L480.824 60.3929L480.822 60.4025L480.821 60.4121L481.89 60.5904ZM479.392 66.8361L478.525 66.1855L478.525 66.1855L479.392 66.8361ZM456.977 70.5836L457.357 69.5683L457.357 69.5683L456.977 70.5836ZM451.772 66.8361L452.639 66.1855L452.639 66.1855L451.772 66.8361ZM449.204 60.5904L448.134 60.7686L448.136 60.7782L448.138 60.7878L449.204 60.5904ZM448.579 22.5605V21.4761H447.495V22.5605H448.579ZM457.905 22.5605V53.2342H460.073V22.5605H457.905ZM457.905 53.2342C457.905 54.7824 457.952 56.2196 458.046 57.5447L460.209 57.3902C460.119 56.1245 460.073 54.7395 460.073 53.2342H457.905ZM458.05 57.5872C458.199 58.9227 458.5 60.1098 458.981 61.1239L460.941 60.1956C460.588 59.4516 460.335 58.5105 460.206 57.3477L458.05 57.5872ZM459.001 61.1648C459.561 62.2289 460.378 63.0713 461.43 63.6801L462.516 61.8033C461.81 61.3943 461.285 60.8487 460.92 60.1547L459.001 61.1648ZM461.468 63.7012C462.564 64.2782 463.965 64.52 465.582 64.52V62.3513C464.145 62.3513 463.14 62.1304 462.478 61.7821L461.468 63.7012ZM465.582 64.52C467.199 64.52 468.599 64.2782 469.696 63.7012L468.686 61.7821C468.024 62.1304 467.019 62.3513 465.582 62.3513V64.52ZM469.734 63.6801C470.794 63.0662 471.599 62.2108 472.114 61.1239L470.154 60.1956C469.836 60.8668 469.345 61.3993 468.647 61.8033L469.734 63.6801ZM472.093 61.1648C472.641 60.1244 472.947 58.9078 473.048 57.5476L470.885 57.3874C470.801 58.5254 470.552 59.4371 470.174 60.1547L472.093 61.1648ZM473.045 57.583C473.188 56.2434 473.259 54.7932 473.259 53.2342H471.09C471.09 54.7287 471.022 56.1007 470.888 57.352L473.045 57.583ZM473.259 53.2342V22.5605H471.09V53.2342H473.259ZM472.175 23.6448H482.584V21.4761H472.175V23.6448ZM481.5 22.5605V51.8463H483.669V22.5605H481.5ZM481.5 51.8463C481.5 55.1303 481.272 57.9762 480.824 60.3929L482.957 60.7878C483.434 58.2079 483.669 55.2244 483.669 51.8463H481.5ZM480.821 60.4121C480.427 62.7757 479.649 64.686 478.525 66.1855L480.259 67.4867C481.633 65.6553 482.521 63.4016 482.96 60.7686L480.821 60.4121ZM478.525 66.1855C477.416 67.6634 475.861 68.7978 473.806 69.5683L474.568 71.5989C476.955 70.7039 478.87 69.34 480.259 67.4867L478.525 66.1855ZM473.806 69.5683C471.751 70.339 469.025 70.7484 465.582 70.7484V72.9171C469.171 72.9171 472.182 72.4937 474.568 71.5989L473.806 69.5683ZM465.582 70.7484C462.139 70.7484 459.413 70.339 457.357 69.5683L456.596 71.5989C458.982 72.4937 461.992 72.9171 465.582 72.9171V70.7484ZM457.357 69.5683C455.303 68.7978 453.748 67.6634 452.639 66.1855L450.904 67.4867C452.294 69.34 454.209 70.7039 456.596 71.5989L457.357 69.5683ZM452.639 66.1855C451.51 64.68 450.709 62.7625 450.27 60.3929L448.138 60.7878C448.624 63.4148 449.535 65.6612 450.904 67.4867L452.639 66.1855ZM450.274 60.4121C449.87 57.9877 449.664 55.1351 449.664 51.8463H447.495C447.495 55.2196 447.706 58.1964 448.134 60.7686L450.274 60.4121ZM449.664 51.8463V22.5605H447.495V51.8463H449.664ZM448.579 23.6448H458.989V21.4761H448.579V23.6448ZM500.531 71V72.0843H501.615V71H500.531ZM490.26 71H489.176V72.0843H490.26V71ZM490.26 22.5605V21.4761H489.176V22.5605H490.26ZM515.313 23.6708L514.91 24.6776L514.921 24.682L514.932 24.6861L515.313 23.6708ZM519.962 26.7243L519.169 27.4632L519.176 27.4704L519.182 27.4775L519.962 26.7243ZM521.628 46.7802L520.7 46.2198L520.7 46.2198L521.628 46.7802ZM515.313 51.6381L515.013 50.5961L513.769 50.9544L514.34 52.116L515.313 51.6381ZM524.82 71V72.0843H526.561L525.794 70.5221L524.82 71ZM513.439 71L512.451 71.4464L512.739 72.0843H513.439V71ZM505.32 53.026L506.308 52.5796L506.02 51.9417H505.32V53.026ZM500.531 53.026V51.9417H499.447V53.026H500.531ZM511.565 43.588L510.818 42.8027L510.808 42.8119L510.799 42.8212L511.565 43.588ZM511.565 32.3455L510.799 33.1123L510.808 33.1216L510.818 33.1307L511.565 32.3455ZM500.531 30.9576V29.8733H499.447V30.9576H500.531ZM500.531 44.9759H499.447V46.0602H500.531V44.9759ZM500.531 69.9157H490.26V72.0843H500.531V69.9157ZM491.345 71V22.5605H489.176V71H491.345ZM490.26 23.6448H508.998V21.4761H490.26V23.6448ZM508.998 23.6448C511.244 23.6448 513.209 23.9971 514.91 24.6776L515.716 22.6641C513.716 21.8641 511.47 21.4761 508.998 21.4761V23.6448ZM514.932 24.6861C516.638 25.3259 518.043 26.2538 519.169 27.4632L520.756 25.9854C519.384 24.5115 517.689 23.4038 515.694 22.6555L514.932 24.6861ZM519.182 27.4775C520.359 28.6962 521.251 30.1749 521.851 31.9326L523.903 31.2318C523.208 29.1957 522.157 27.4358 520.743 25.9712L519.182 27.4775ZM521.851 31.9326C522.454 33.6987 522.764 35.7058 522.764 37.9667H524.933C524.933 35.5086 524.596 33.2594 523.903 31.2318L521.851 31.9326ZM522.764 37.9667C522.764 41.2316 522.06 43.9672 520.7 46.2198L522.556 47.3407C524.157 44.6891 524.933 41.5491 524.933 37.9667H522.764ZM520.7 46.2198C519.359 48.4401 517.477 49.886 515.013 50.5961L515.613 52.68C518.608 51.8172 520.936 50.0245 522.556 47.3407L520.7 46.2198ZM514.34 52.116L523.847 71.4779L525.794 70.5221L516.286 51.1601L514.34 52.116ZM524.82 69.9157H513.439V72.0843H524.82V69.9157ZM514.427 70.5536L506.308 52.5796L504.331 53.4724L512.451 71.4464L514.427 70.5536ZM505.32 51.9417H500.531V54.1104H505.32V51.9417ZM499.447 53.026V71H501.615V53.026H499.447ZM506.499 46.0602C509.014 46.0602 511.086 45.6007 512.332 44.3547L510.799 42.8212C510.194 43.4258 508.889 43.8916 506.499 43.8916V46.0602ZM512.313 44.3732C513.597 43.1502 514.107 41.2634 514.107 39.0077H511.938C511.938 41.0084 511.477 42.1751 510.818 42.8027L512.313 44.3732ZM514.107 39.0077V36.9258H511.938V39.0077H514.107ZM514.107 36.9258C514.107 34.6701 513.597 32.7833 512.313 31.5603L510.818 33.1307C511.477 33.7584 511.938 34.9251 511.938 36.9258H514.107ZM512.332 31.5788C511.086 30.3328 509.014 29.8733 506.499 29.8733V32.0419C508.889 32.0419 510.194 32.5077 510.799 33.1123L512.332 31.5788ZM506.499 29.8733H500.531V32.0419H506.499V29.8733ZM499.447 30.9576V44.9759H501.615V30.9576H499.447ZM500.531 46.0602H506.499V43.8916H500.531V46.0602ZM530.761 71H529.677V72.0843H530.761V71ZM530.761 22.5605V21.4761H529.677V22.5605H530.761ZM561.713 22.5605H562.797V21.4761H561.713V22.5605ZM561.713 31.0964V32.1807H562.797V31.0964H561.713ZM541.171 31.0964V30.012H540.087V31.0964H541.171ZM541.171 42.2H540.087V43.2843H541.171V42.2ZM561.019 42.2H562.103V41.1157H561.019V42.2ZM561.019 50.7359V51.8202H562.103V50.7359H561.019ZM541.171 50.7359V49.6516H540.087V50.7359H541.171ZM541.171 62.4641H540.087V63.5484H541.171V62.4641ZM561.713 62.4641H562.797V61.3798H561.713V62.4641ZM561.713 71V72.0843H562.797V71H561.713ZM531.846 71V22.5605H529.677V71H531.846ZM530.761 23.6448H561.713V21.4761H530.761V23.6448ZM560.628 22.5605V31.0964H562.797V22.5605H560.628ZM561.713 30.012H541.171V32.1807H561.713V30.012ZM540.087 31.0964V42.2H542.255V31.0964H540.087ZM541.171 43.2843H561.019V41.1157H541.171V43.2843ZM559.934 42.2V50.7359H562.103V42.2H559.934ZM561.019 49.6516H541.171V51.8202H561.019V49.6516ZM540.087 50.7359V62.4641H542.255V50.7359H540.087ZM541.171 63.5484H561.713V61.3798H541.171V63.5484ZM560.628 62.4641V71H562.797V62.4641H560.628ZM561.713 69.9157H530.761V72.0843H561.713V69.9157ZM574.871 69.8202L575.313 68.83L574.871 69.8202ZM567.584 64.3378L566.781 63.6097L566.161 64.294L566.738 65.0152L567.584 64.3378ZM573.622 57.6757L574.426 56.9482L573.623 56.0602L572.819 56.9475L573.622 57.6757ZM579.382 61.9783L578.942 62.9692L578.95 62.9727L579.382 61.9783ZM591.527 61.7007L592.232 62.524L592.232 62.524L591.527 61.7007ZM591.943 53.026L591.215 53.8301L591.225 53.8385L591.234 53.8467L591.943 53.026ZM586.946 51.1523L586.77 52.2223L586.778 52.2235L586.946 51.1523ZM581.88 50.3195L581.698 51.3885L581.704 51.3895L581.88 50.3195ZM572.442 45.5311L571.586 46.1968L571.592 46.2045L572.442 45.5311ZM574.108 25.614L574.802 26.447L574.809 26.4408L574.108 25.614ZM596.731 23.4626L597.148 22.4617L597.148 22.4617L596.731 23.4626ZM603.463 28.1817L604.271 28.9047L604.905 28.1956L604.285 27.4744L603.463 28.1817ZM597.564 34.7745L596.759 35.5013L597.568 36.3964L598.372 35.4975L597.564 34.7745ZM592.984 31.4434L592.52 32.4233L592.53 32.4284L592.541 32.4332L592.984 31.4434ZM581.533 39.7017L580.847 40.5409L580.856 40.5484L580.865 40.5556L581.533 39.7017ZM586.669 41.5754L586.859 40.5079L586.857 40.5076L586.669 41.5754ZM591.735 42.4776L591.545 43.5451L591.546 43.5454L591.735 42.4776ZM600.826 46.919L601.616 46.1769L601.616 46.1769L600.826 46.919ZM602.838 62.3947L603.84 62.81L603.844 62.8015L602.838 62.3947ZM599.299 67.3913L600.017 68.2044L600.023 68.1986L600.03 68.1926L599.299 67.3913ZM593.47 70.653L593.121 69.6264L593.114 69.6286L593.47 70.653ZM585.489 70.7484C581.535 70.7484 578.152 70.0968 575.313 68.83L574.429 70.8105C577.604 72.227 581.3 72.9171 585.489 72.9171V70.7484ZM575.313 68.83C572.446 67.5508 570.162 65.8241 568.431 63.6605L566.738 65.0152C568.708 67.4781 571.282 69.4063 574.429 70.8105L575.313 68.83ZM568.388 65.066L574.425 58.4038L572.819 56.9475L566.781 63.6097L568.388 65.066ZM572.818 58.4032C574.662 60.4417 576.702 61.9739 578.942 62.9692L579.822 60.9874C577.898 60.1321 576.098 58.7959 574.426 56.9482L572.818 58.4032ZM578.95 62.9727C581.205 63.9533 583.503 64.4506 585.836 64.4506V62.2819C583.82 62.2819 581.815 61.8539 579.814 60.9839L578.95 62.9727ZM585.836 64.4506C588.476 64.4506 590.667 63.866 592.232 62.524L590.821 60.8774C589.796 61.7562 588.193 62.2819 585.836 62.2819V64.4506ZM592.232 62.524C593.82 61.1628 594.554 59.2346 594.554 56.9123H592.385C592.385 58.7538 591.824 60.0179 590.821 60.8774L592.232 62.524ZM594.554 56.9123C594.554 54.9778 593.97 53.344 592.652 52.2054L591.234 53.8467C591.951 54.4661 592.385 55.4232 592.385 56.9123H594.554ZM592.67 52.2219C591.46 51.1264 589.534 50.4607 587.114 50.0811L586.778 52.2235C589.077 52.5841 590.483 53.1676 591.215 53.8301L592.67 52.2219ZM587.122 50.0823L582.056 49.2495L581.704 51.3895L586.77 52.2223L587.122 50.0823ZM582.062 49.2506C577.869 48.5369 575.012 47.0277 573.292 44.8576L571.592 46.2045C573.759 48.9386 577.193 50.6217 581.698 51.3885L582.062 49.2506ZM573.298 44.8654C571.522 42.5811 570.612 39.7932 570.612 36.44H568.443C568.443 40.2117 569.477 43.4844 571.586 46.1968L573.298 44.8654ZM570.612 36.44C570.612 32.0263 572.04 28.7485 574.802 26.447L573.414 24.781C570.068 27.5686 568.443 31.5082 568.443 36.44H570.612ZM574.809 26.4408C577.604 24.0693 581.602 22.812 586.946 22.812V20.6434C581.28 20.6434 576.718 21.977 573.406 24.7872L574.809 26.4408ZM586.946 22.812C590.585 22.812 593.699 23.3738 596.314 24.4636L597.148 22.4617C594.212 21.2383 590.803 20.6434 586.946 20.6434V22.812ZM596.314 24.4636C598.957 25.5647 601.055 27.0452 602.641 28.8889L604.285 27.4744C602.448 25.3394 600.058 23.6738 597.148 22.4617L596.314 24.4636ZM602.655 27.4587L596.756 34.0514L598.372 35.4975L604.271 28.9047L602.655 27.4587ZM598.369 34.0476C596.973 32.502 595.323 31.3018 593.427 30.4536L592.541 32.4332C594.161 33.1579 595.565 34.1785 596.759 35.5013L598.369 34.0476ZM593.448 30.4634C591.526 29.5528 589.374 29.1099 587.016 29.1099V31.2786C589.099 31.2786 590.926 31.6684 592.52 32.4233L593.448 30.4634ZM587.016 29.1099C584.558 29.1099 582.514 29.6104 581.07 30.7965C579.586 32.016 578.922 33.8048 578.922 35.9542H581.091C581.091 34.2636 581.595 33.1724 582.447 32.472C583.34 31.738 584.8 31.2786 587.016 31.2786V29.1099ZM578.922 35.9542C578.922 37.8508 579.512 39.4492 580.847 40.5409L582.22 38.8625C581.519 38.2887 581.091 37.3888 581.091 35.9542H578.922ZM580.865 40.5556C582.139 41.5528 584.062 42.2165 586.48 42.6433L586.857 40.5076C584.557 40.1016 583.056 39.5161 582.202 38.8478L580.865 40.5556ZM586.479 42.643L591.545 43.5451L591.925 41.41L586.859 40.5079L586.479 42.643ZM591.546 43.5454C595.314 44.2103 598.108 45.608 600.035 47.6612L601.616 46.1769C599.287 43.6961 596.02 42.1328 591.923 41.4098L591.546 43.5454ZM600.035 47.6612C601.933 49.6825 602.934 52.4472 602.934 56.0795H605.102C605.102 52.0318 603.975 48.6896 601.616 46.1769L600.035 47.6612ZM602.934 56.0795C602.934 58.2185 602.563 60.1842 601.833 61.9879L603.844 62.8015C604.686 60.7189 605.102 58.4745 605.102 56.0795H602.934ZM601.837 61.9794C601.113 63.7238 600.028 65.259 598.569 66.59L600.03 68.1926C601.716 66.6552 602.99 64.8593 603.84 62.81L601.837 61.9794ZM598.582 66.5782C597.132 67.8571 595.32 68.8785 593.121 69.6264L593.819 71.6796C596.246 70.8545 598.32 69.7015 600.017 68.2044L598.582 66.5782ZM593.114 69.6286C590.988 70.3663 588.453 70.7484 585.489 70.7484V72.9171C588.632 72.9171 591.418 72.5127 593.825 71.6774L593.114 69.6286Z" fill="#0B2A41" mask="url(#path-5-outside-2_1718_6449)"/>
</svg>
